<svg xmlns="http://www.w3.org/2000/svg" xmlns:xlink="http://www.w3.org/1999/xlink" id="Layer_1" x="0px" y="0px" viewBox="0 0 1280 1280" style="enable-background:new 0 0 1280 1280;" xml:space="preserve"><style type="text/css">	.st0{fill:#2A2E6E;}	.st1{fill:#2B2C6E;}</style><g>	<g>		<path class="st0" d="M177.3,439.8c23.4,7.5,39.4,19.8,47.9,36.8c8.5,17,9,37.1,1.5,60.4L212,582.4L71.8,537.2l15.7-48.5   c7.3-22.5,18.6-38,34.1-46.6C137,433.6,155.6,432.8,177.3,439.8z M166,479.6c-12.8-4.1-23.2-4.7-31-1.6   c-7.8,3.1-13.4,9.8-16.8,20.2l-3.6,11l78.5,25.3l2.7-8.4c3.7-11.5,3.1-21-1.9-28.5C189.1,490,179.7,484,166,479.6z"></path>		<path class="st0" d="M306.9,381.2l-48.3,72.9l-122.8-81.4l48.3-72.9l26.6,17.7l-26.3,39.7l19.3,12.8l24.4-36.8l26.6,17.7   l-24.4,36.8l23.2,15.4l26.3-39.7L306.9,381.2z"></path>		<path class="st0" d="M278.2,206.4l33.2-29.7l62.3,141.9l-34.9,31.3l-134.1-77.7l33.3-29.9l64.8,42.2c14.2,9.6,23.6,16.7,28.2,21.2   c-2.8-3.8-6-8.8-9.7-15c-3.7-6.2-6.4-11.2-8.3-14.9L278.2,206.4z"></path>		<path class="st0" d="M465.2,103.3l35.8,81.1c7.8,17.6,8.8,33.5,3.1,47.6c-5.7,14.1-18,25.3-36.8,33.6c-18.4,8.1-34.6,9.6-48.6,4.6   c-14-5.1-24.9-16.4-32.7-34l-36.1-82l36.6-16.1l34.9,79.1c4.2,9.5,9,15.7,14.5,18.4c5.5,2.7,11.7,2.6,18.6-0.5   c7.4-3.3,11.9-7.8,13.4-13.5c1.5-5.7,0.1-13.5-4.2-23.2l-34.8-78.9L465.2,103.3z"></path>		<path class="st0" d="M627.7,224.8l-86.6,11.9L521,90.8l86.6-11.9l4.4,31.6l-47.2,6.5l3.2,23l43.7-6l4.4,31.6l-43.7,6l3.8,27.6   l47.2-6.5L627.7,224.8z M539.8,76.3l-0.4-2.9c8.7-12.4,14.3-20.4,16.6-23.9c2.3-3.6,4.2-6.7,5.7-9.5l42.7-5.9l0.3,2.1   c-4.7,5-11.3,11.4-19.7,19.3c-8.4,7.9-14.8,13.6-19.2,17.3L539.8,76.3z"></path>		<path class="st0" d="M641.4,224.9l15.2-146.5l39.6,4.1L684.3,197l56.4,5.9l-3.3,32L641.4,224.9z"></path>		<path class="st0" d="M877.4,129.6l41.5,16.3l-98.7,119.5l-43.6-17.1l9-154.7l41.7,16.3l-8.6,76.8c-2.2,17-4.3,28.6-6.3,34.8   c2.2-4.2,5.2-9.3,9.1-15.4c3.9-6.1,7.1-10.8,9.5-14.1L877.4,129.6z"></path>		<path class="st0" d="M935.2,339.9l-70.2-52.2L953,169.5l70.2,52.2l-19.1,25.6l-38.2-28.5L952,237.5l35.4,26.3l-19.1,25.6   L933,263.1l-16.6,22.3l38.2,28.5L935.2,339.9z"></path>		<path class="st0" d="M982.3,394.5l69.4-85.7l-0.5-0.7c-14,11.6-25,20.2-33.2,26l-52.3,36.8L945.3,342l120.5-84.8l30.5,43.3   l-67.8,85.3l0.5,0.7l102.9-35.6l30.6,43.4l-120.4,84.8l-21.1-29.9l52.8-37.2c2.7-1.9,5.8-4,9.2-6.3c3.4-2.3,11.9-7.7,25.4-16.2   l-0.5-0.7l-103.7,36.7L982.3,394.5z"></path>		<path class="st0" d="M1067.1,578.8l-25.1-83.8l141.1-42.4l25.1,83.8l-30.6,9.2l-13.7-45.6l-22.2,6.7l12.7,42.3l-30.6,9.2   l-12.7-42.3l-26.6,8l13.7,45.6L1067.1,578.8z"></path>	</g>	<g>		<g>			<g>				<g>					<path class="st1" d="M925.4,630.8H672.7c-20.5,0-37.1-16.6-37.1-37.1s16.6-37.1,37.1-37.1h252.7c20.5,0,37.1,16.6,37.1,37.1      S945.9,630.8,925.4,630.8z"></path>				</g>			</g>			<g>				<g>					<path class="st1" d="M925.4,761.1H672.7c-20.5,0-37.1-16.6-37.1-37.1s16.6-37.1,37.1-37.1h252.7c20.5,0,37.1,16.6,37.1,37.1      S945.9,761.1,925.4,761.1z"></path>				</g>			</g>		</g>		<g>			<g>				<path class="st1" d="M625.3,935.7c-87.9,0-168.7-40.6-221.7-111.4c-12.3-16.4-8.9-39.7,7.5-52c16.4-12.3,39.7-8.9,52,7.5     c38.8,51.9,97.9,81.6,162.2,81.6c111.7,0,202.6-90.9,202.6-202.6S737,456.2,625.3,456.2c-64.3,0-123.4,29.7-162.2,81.6     c-12.3,16.4-35.6,19.8-52,7.5c-16.4-12.3-19.8-35.6-7.5-52C456.6,422.6,537.4,382,625.3,382c152.7,0,276.9,124.2,276.9,276.9     S778,935.7,625.3,935.7z"></path>			</g>		</g>	</g>	<g>		<path class="st1" d="M158.4,983.9l68.7-86.3l-0.5-0.7c-13.9,11.7-24.9,20.4-33,26.2l-52,37.2L121,931.7L240.8,846l30.8,43.1   l-67.2,85.9l0.5,0.7l102.6-36.4l30.9,43.2l-119.8,85.7l-21.3-29.7l52.5-37.6c2.7-2,5.8-4.1,9.2-6.4c3.4-2.3,11.8-7.8,25.3-16.4   l-0.5-0.7l-103.4,37.5L158.4,983.9z"></path>		<path class="st1" d="M264.8,1103.9l91.8-115.2l31.3,24.9L296,1128.9L264.8,1103.9z"></path>		<path class="st1" d="M542.6,1160c-7.8,23.3-20.2,39.1-37.3,47.4c-17.1,8.3-37.2,8.6-60.5,0.8l-45.2-15.1l46.8-139.7l48.3,16.2   c22.4,7.5,37.8,19,46.2,34.6C549.3,1119.8,549.8,1138.4,542.6,1160z M503,1148.2c4.3-12.8,4.9-23.1,1.9-31c-3-7.9-9.6-13.5-20-17   l-11-3.7l-26.2,78.2l8.4,2.8c11.5,3.8,21,3.3,28.6-1.5C492.3,1171.2,498.4,1161.9,503,1148.2z"></path>		<path class="st1" d="M567.1,1237.8l13.6-146.7l39.8,3.7L607,1241.5L567.1,1237.8z"></path>		<path class="st1" d="M801.5,1223.9l-51.5,8.2l-69.5-94l-0.9,0.1c3.8,15.9,6.4,28.1,7.8,36.6l10.5,65.6L663,1246l-23.2-145.5   l51.3-8.2l69.1,92.7l0.6-0.1c-3.3-14.5-5.6-26.2-7-35.1l-10.5-65.8l35-5.6L801.5,1223.9z"></path>		<path class="st1" d="M935.3,1163.8l-78.7,38.2l-64.4-132.5l78.7-38.2l14,28.7l-42.9,20.8l10.1,20.8l39.7-19.3l14,28.7l-39.7,19.3   l12.2,25l42.9-20.8L935.3,1163.8z"></path>		<path class="st1" d="M973.1,1070.1l35.1,40.6l-30.1,26l-96.3-111.4l36.5-31.6c30.3-26.2,54.9-28.3,73.9-6.3   c11.2,12.9,13.5,28.3,7,46.3l74.5,20.5l-34.2,29.5l-58.7-20.1L973.1,1070.1z M953.5,1047.4l5.6-4.9c10.5-9.1,11.8-18.3,3.7-27.6   c-6.6-7.7-15.1-7.1-25.4,1.9l-5.9,5.1L953.5,1047.4z"></path>		<path class="st1" d="M1109,865.1c21.2,12.9,34.1,27.9,38.8,45c4.7,17.1,0.9,35.7-11.3,55.7c-12,19.7-26.8,31.5-44.3,35.3   c-17.5,3.8-36.8-0.8-58-13.7c-20.9-12.8-33.7-27.7-38.4-44.9c-4.7-17.2-0.9-35.8,11.3-55.7c12.2-20,26.9-31.9,44.2-35.5   C1068.5,847.5,1087.8,852.2,1109,865.1z M1056.2,951.7c24.3,14.8,41.6,13.8,52-3.1c5.2-8.6,6.2-16.8,2.8-24.5   c-3.4-7.8-11.3-15.4-23.8-23.1c-12.6-7.7-23.1-11.2-31.7-10.6c-8.6,0.6-15.4,5-20.5,13.4C1024.6,920.7,1031.7,936.7,1056.2,951.7z   "></path>	</g></g></svg>